<?xml version="1.0" encoding="UTF-8"?>
<svg width="32" height="32" viewBox="0 0 32 32" fill="none" xmlns="http://www.w3.org/2000/svg">
  <!-- Simplified version for favicon -->
  <defs>
    <linearGradient id="bgGradient" x1="0%" y1="0%" x2="100%" y2="100%">
      <stop offset="0%" style="stop-color:#0077b5;stop-opacity:1" />
      <stop offset="100%" style="stop-color:#005885;stop-opacity:1" />
    </linearGradient>
  </defs>
  
  <!-- Background -->
  <circle cx="16" cy="16" r="15" fill="url(#bgGradient)"/>
  
  <!-- Network dots -->
  <circle cx="10" cy="10" r="2" fill="white"/>
  <circle cx="22" cy="10" r="2" fill="white"/>
  <circle cx="16" cy="22" r="2" fill="white"/>
  
  <!-- Connection lines -->
  <line x1="10" y1="10" x2="16" y2="16" stroke="white" stroke-width="1.5"/>
  <line x1="22" y1="10" x2="16" y2="16" stroke="white" stroke-width="1.5"/>
  <line x1="16" y1="16" x2="16" y2="22" stroke="white" stroke-width="1.5"/>
  
  <!-- Thumbs up -->
  <path d="M14 11 L14 8 C14 7 15 6 16 6 C17 6 18 7 18 8 L18 11 L20 11 C21 11 22 12 22 13 L22 18 C22 19 21 20 20 20 L15 20 L15 24 C15 25 14 26 13 26 L11 26 C10 26 9 25 9 24 L9 16 C9 13 11 11 14 11 Z" 
        fill="white"/>
</svg>
